<svg width="1960" height="250" viewBox="0 0 1960 250" fill="none" xmlns="http://www.w3.org/2000/svg">
<g clip-path="url(#clip0_60_132)">
<path d="M967.13 76.4C976.23 76.4 984.35 78.29 991.49 82.07C998.77 85.85 1004.44 91.45 1008.5 98.87C1012.56 106.29 1014.59 115.25 1014.59 125.75V194H990.86V129.32C990.86 118.96 988.27 111.05 983.09 105.59C977.91 99.99 970.84 97.19 961.88 97.19C952.92 97.19 945.78 99.99 940.46 105.59C935.28 111.05 932.69 118.96 932.69 129.32V194H908.75V78.29H932.69V91.52C936.61 86.76 941.58 83.05 947.6 80.39C953.76 77.73 960.27 76.4 967.13 76.4ZM1149.92 78.29V194H1125.98V180.35C1122.2 185.11 1117.23 188.89 1111.07 191.69C1105.05 194.35 1098.61 195.68 1091.75 195.68C1082.65 195.68 1074.46 193.79 1067.18 190.01C1060.04 186.23 1054.37 180.63 1050.17 173.21C1046.11 165.79 1044.08 156.83 1044.08 146.33V78.29H1067.81V142.76C1067.81 153.12 1070.4 161.1 1075.58 166.7C1080.76 172.16 1087.83 174.89 1096.79 174.89C1105.75 174.89 1112.82 172.16 1118 166.7C1123.32 161.1 1125.98 153.12 1125.98 142.76V78.29H1149.92ZM1193.68 62.96C1189.34 62.96 1185.7 61.49 1182.76 58.55C1179.82 55.61 1178.35 51.97 1178.35 47.63C1178.35 43.29 1179.82 39.65 1182.76 36.71C1185.7 33.77 1189.34 32.3 1193.68 32.3C1197.88 32.3 1201.45 33.77 1204.39 36.71C1207.33 39.65 1208.8 43.29 1208.8 47.63C1208.8 51.97 1207.33 55.61 1204.39 58.55C1201.45 61.49 1197.88 62.96 1193.68 62.96ZM1205.44 78.29V194H1181.5V78.29H1205.44ZM1264.81 97.82V161.87C1264.81 166.21 1265.79 169.36 1267.75 171.32C1269.85 173.14 1273.35 174.05 1278.25 174.05H1292.95V194H1274.05C1263.27 194 1255.01 191.48 1249.27 186.44C1243.53 181.4 1240.66 173.21 1240.66 161.87V97.82H1227.01V78.29H1240.66V49.52H1264.81V78.29H1292.95V97.82H1264.81ZM1419.17 78.29L1348.19 248.39H1323.41L1346.93 192.11L1301.36 78.29H1328.03L1360.58 166.49L1394.39 78.29H1419.17Z" fill="black"/>
<path d="M26.77 120.71C26.77 106.43 30.06 93.62 36.64 82.28C43.36 70.94 52.39 62.12 63.73 55.82C75.21 49.38 87.74 46.16 101.32 46.16C116.86 46.16 130.65 50.01 142.69 57.71C154.87 65.27 163.69 76.05 169.15 90.05H140.38C136.6 82.35 131.35 76.61 124.63 72.83C117.91 69.05 110.14 67.16 101.32 67.16C91.66 67.16 83.05 69.33 75.49 73.67C67.93 78.01 61.98 84.24 57.64 92.36C53.44 100.48 51.34 109.93 51.34 120.71C51.34 131.49 53.44 140.94 57.64 149.06C61.98 157.18 67.93 163.48 75.49 167.96C83.05 172.3 91.66 174.47 101.32 174.47C110.14 174.47 117.91 172.58 124.63 168.8C131.35 165.02 136.6 159.28 140.38 151.58H169.15C163.69 165.58 154.87 176.36 142.69 183.92C130.65 191.48 116.86 195.26 101.32 195.26C87.6 195.26 75.07 192.11 63.73 185.81C52.39 179.37 43.36 170.48 36.64 159.14C30.06 147.8 26.77 134.99 26.77 120.71ZM247.362 195.89C236.442 195.89 226.572 193.44 217.752 188.54C208.932 183.5 202.002 176.5 196.962 167.54C191.922 158.44 189.402 147.94 189.402 136.04C189.402 124.28 191.992 113.85 197.172 104.75C202.352 95.65 209.422 88.65 218.382 83.75C227.342 78.85 237.352 76.4 248.412 76.4C259.472 76.4 269.482 78.85 278.442 83.75C287.402 88.65 294.472 95.65 299.652 104.75C304.832 113.85 307.422 124.28 307.422 136.04C307.422 147.8 304.762 158.23 299.442 167.33C294.122 176.43 286.842 183.5 277.602 188.54C268.502 193.44 258.422 195.89 247.362 195.89ZM247.362 175.1C253.522 175.1 259.262 173.63 264.582 170.69C270.042 167.75 274.452 163.34 277.812 157.46C281.172 151.58 282.852 144.44 282.852 136.04C282.852 127.64 281.242 120.57 278.022 114.83C274.802 108.95 270.532 104.54 265.212 101.6C259.892 98.66 254.152 97.19 247.992 97.19C241.832 97.19 236.092 98.66 230.772 101.6C225.592 104.54 221.462 108.95 218.382 114.83C215.302 120.57 213.762 127.64 213.762 136.04C213.762 148.5 216.912 158.16 223.212 165.02C229.652 171.74 237.702 175.1 247.362 175.1ZM389.468 76.4C398.568 76.4 406.688 78.29 413.828 82.07C421.108 85.85 426.778 91.45 430.838 98.87C434.898 106.29 436.928 115.25 436.928 125.75V194H413.198V129.32C413.198 118.96 410.608 111.05 405.428 105.59C400.248 99.99 393.178 97.19 384.218 97.19C375.258 97.19 368.118 99.99 362.798 105.59C357.618 111.05 355.028 118.96 355.028 129.32V194H331.088V78.29H355.028V91.52C358.948 86.76 363.918 83.05 369.938 80.39C376.098 77.73 382.608 76.4 389.468 76.4ZM495.395 97.82V161.87C495.395 166.21 496.375 169.36 498.335 171.32C500.435 173.14 503.935 174.05 508.835 174.05H523.535V194H504.635C493.855 194 485.595 191.48 479.855 186.44C474.115 181.4 471.245 173.21 471.245 161.87V97.82H457.595V78.29H471.245V49.52H495.395V78.29H523.535V97.82H495.395ZM557.78 62.96C553.44 62.96 549.8 61.49 546.86 58.55C543.92 55.61 542.45 51.97 542.45 47.63C542.45 43.29 543.92 39.65 546.86 36.71C549.8 33.77 553.44 32.3 557.78 32.3C561.98 32.3 565.55 33.77 568.49 36.71C571.43 39.65 572.9 43.29 572.9 47.63C572.9 51.97 571.43 55.61 568.49 58.55C565.55 61.49 561.98 62.96 557.78 62.96ZM569.54 78.29V194H545.6V78.29H569.54Z" fill="black"/>
<rect x="596" y="72" width="203" height="29" rx="14.5" fill="url(#paint0_angular_60_132)"/>
<rect x="673" y="158" width="141" height="27" rx="13.5" fill="url(#paint1_angular_60_132)"/>
<rect x="580" y="127" width="93" height="29" rx="14.5" fill="url(#paint2_angular_60_132)"/>
<mask id="path-6-outside-1_60_132" maskUnits="userSpaceOnUse" x="700" y="115" width="193" height="28" fill="black">
<rect fill="white" x="700" y="115" width="193" height="28"/>
<path d="M700 128.5C700 121.044 706.044 115 713.5 115H879.5C886.956 115 893 121.044 893 128.5V128.5C893 135.956 886.956 142 879.5 142H713.5C706.044 142 700 135.956 700 128.5V128.5Z"/>
</mask>
<path d="M700 128.5C700 121.044 706.044 115 713.5 115H879.5C886.956 115 893 121.044 893 128.5V128.5C893 135.956 886.956 142 879.5 142H713.5C706.044 142 700 135.956 700 128.5V128.5Z" fill="url(#paint3_angular_60_132)"/>
<path d="M700 115H893H700ZM893 128.5C893 136.232 886.732 142.5 879 142.5H714C706.268 142.5 700 136.232 700 128.5C700 135.68 706.044 141.5 713.5 141.5H879.5C886.956 141.5 893 135.68 893 128.5ZM700 142V115V142ZM893 115V142V115Z" fill="white" mask="url(#path-6-outside-1_60_132)"/>
<path d="M1517.44 195L1511.08 172.68H1484.44L1478.08 195H1464.4L1488.88 111.24H1507.24L1531.72 195H1517.44ZM1498.24 124.8H1497.28L1486.96 161.52H1508.56L1498.24 124.8ZM1570.07 196.44C1563.35 196.44 1557.55 195.36 1552.67 193.2C1547.87 191.04 1543.99 188.16 1541.03 184.56L1549.07 177.36C1551.79 180.32 1554.83 182.6 1558.19 184.2C1561.63 185.72 1565.67 186.48 1570.31 186.48C1574.55 186.48 1577.95 185.76 1580.51 184.32C1583.15 182.88 1584.47 180.64 1584.47 177.6C1584.47 176.32 1584.23 175.24 1583.75 174.36C1583.27 173.48 1582.59 172.76 1581.71 172.2C1580.83 171.64 1579.79 171.2 1578.59 170.88C1577.47 170.56 1576.27 170.32 1574.99 170.16L1565.15 168.6C1562.75 168.28 1560.31 167.76 1557.83 167.04C1555.35 166.32 1553.11 165.32 1551.11 164.04C1549.19 162.68 1547.59 160.96 1546.31 158.88C1545.11 156.8 1544.51 154.16 1544.51 150.96C1544.51 144.64 1546.91 139.84 1551.71 136.56C1556.59 133.28 1562.99 131.64 1570.91 131.64C1576.67 131.64 1581.63 132.52 1585.79 134.28C1590.03 135.96 1593.55 138.32 1596.35 141.36L1589.03 149.04C1587.43 147.2 1585.15 145.52 1582.19 144C1579.23 142.4 1575.31 141.6 1570.43 141.6C1561.71 141.6 1557.35 144.36 1557.35 149.88C1557.35 152.52 1558.27 154.36 1560.11 155.4C1562.03 156.36 1564.27 157 1566.83 157.32L1576.67 158.88C1579.15 159.28 1581.59 159.8 1583.99 160.44C1586.47 161.08 1588.67 162.08 1590.59 163.44C1592.59 164.72 1594.19 166.4 1595.39 168.48C1596.67 170.56 1597.31 173.2 1597.31 176.4C1597.31 182.64 1594.87 187.56 1589.99 191.16C1585.19 194.68 1578.55 196.44 1570.07 196.44ZM1642.03 196.44C1635.31 196.44 1629.51 195.36 1624.63 193.2C1619.83 191.04 1615.95 188.16 1612.99 184.56L1621.03 177.36C1623.75 180.32 1626.79 182.6 1630.15 184.2C1633.59 185.72 1637.63 186.48 1642.27 186.48C1646.51 186.48 1649.91 185.76 1652.47 184.32C1655.11 182.88 1656.43 180.64 1656.43 177.6C1656.43 176.32 1656.19 175.24 1655.71 174.36C1655.23 173.48 1654.55 172.76 1653.67 172.2C1652.79 171.64 1651.75 171.2 1650.55 170.88C1649.43 170.56 1648.23 170.32 1646.95 170.16L1637.11 168.6C1634.71 168.28 1632.27 167.76 1629.79 167.04C1627.31 166.32 1625.07 165.32 1623.07 164.04C1621.15 162.68 1619.55 160.96 1618.27 158.88C1617.07 156.8 1616.47 154.16 1616.47 150.96C1616.47 144.64 1618.87 139.84 1623.67 136.56C1628.55 133.28 1634.95 131.64 1642.87 131.64C1648.63 131.64 1653.59 132.52 1657.75 134.28C1661.99 135.96 1665.51 138.32 1668.31 141.36L1660.99 149.04C1659.39 147.2 1657.11 145.52 1654.15 144C1651.19 142.4 1647.27 141.6 1642.39 141.6C1633.67 141.6 1629.31 144.36 1629.31 149.88C1629.31 152.52 1630.23 154.36 1632.07 155.4C1633.99 156.36 1636.23 157 1638.79 157.32L1648.63 158.88C1651.11 159.28 1653.55 159.8 1655.95 160.44C1658.43 161.08 1660.63 162.08 1662.55 163.44C1664.55 164.72 1666.15 166.4 1667.35 168.48C1668.63 170.56 1669.27 173.2 1669.27 176.4C1669.27 182.64 1666.83 187.56 1661.95 191.16C1657.15 194.68 1650.51 196.44 1642.03 196.44ZM1717.7 121.8C1714.34 121.8 1711.98 121.12 1710.62 119.76C1709.34 118.4 1708.7 116.72 1708.7 114.72V112.2C1708.7 110.2 1709.34 108.52 1710.62 107.16C1711.98 105.8 1714.3 105.12 1717.58 105.12C1720.94 105.12 1723.26 105.8 1724.54 107.16C1725.9 108.52 1726.58 110.2 1726.58 112.2V114.72C1726.58 116.72 1725.9 118.4 1724.54 119.76C1723.26 121.12 1720.98 121.8 1717.7 121.8ZM1689.98 184.44H1711.1V143.64H1689.98V133.08H1724.18V184.44H1743.98V195H1689.98V184.44ZM1818.21 201.72C1818.21 208.12 1815.53 212.84 1810.17 215.88C1804.81 218.92 1796.65 220.44 1785.69 220.44C1780.33 220.44 1775.81 220.08 1772.13 219.36C1768.53 218.72 1765.57 217.76 1763.25 216.48C1761.01 215.2 1759.37 213.64 1758.33 211.8C1757.37 209.96 1756.89 207.88 1756.89 205.56C1756.89 202.2 1757.81 199.56 1759.65 197.64C1761.57 195.8 1764.25 194.44 1767.69 193.56V192.36C1765.61 191.56 1763.93 190.44 1762.65 189C1761.45 187.56 1760.85 185.68 1760.85 183.36C1760.85 180.32 1761.89 178.04 1763.97 176.52C1766.05 174.92 1768.73 173.72 1772.01 172.92V172.32C1768.25 170.56 1765.33 168.08 1763.25 164.88C1761.17 161.68 1760.13 157.84 1760.13 153.36C1760.13 150.08 1760.73 147.12 1761.93 144.48C1763.13 141.76 1764.81 139.48 1766.97 137.64C1769.21 135.72 1771.85 134.24 1774.89 133.2C1778.01 132.16 1781.49 131.64 1785.33 131.64C1789.65 131.64 1793.53 132.32 1796.97 133.68V131.64C1796.97 129.24 1797.65 127.24 1799.01 125.64C1800.37 124.04 1802.45 123.24 1805.25 123.24H1816.53V133.56H1802.13V136.44C1804.85 138.28 1806.93 140.64 1808.37 143.52C1809.81 146.32 1810.53 149.6 1810.53 153.36C1810.53 156.64 1809.93 159.64 1808.73 162.36C1807.53 165 1805.81 167.28 1803.57 169.2C1801.41 171.04 1798.77 172.48 1795.65 173.52C1792.61 174.48 1789.17 174.96 1785.33 174.96C1782.61 174.96 1780.05 174.72 1777.65 174.24C1776.21 174.64 1774.77 175.32 1773.33 176.28C1771.89 177.24 1771.17 178.56 1771.17 180.24C1771.17 182.16 1772.09 183.36 1773.93 183.84C1775.77 184.32 1778.05 184.56 1780.77 184.56H1794.69C1803.01 184.56 1809.01 186.16 1812.69 189.36C1816.37 192.48 1818.21 196.6 1818.21 201.72ZM1805.97 202.56C1805.97 200.48 1805.13 198.8 1803.45 197.52C1801.77 196.32 1798.73 195.72 1794.33 195.72H1772.85C1769.81 197.16 1768.29 199.48 1768.29 202.68C1768.29 205 1769.25 207 1771.17 208.68C1773.17 210.36 1776.45 211.2 1781.01 211.2H1790.73C1795.69 211.2 1799.45 210.44 1802.01 208.92C1804.65 207.48 1805.97 205.36 1805.97 202.56ZM1785.33 165.96C1789.57 165.96 1792.69 164.96 1794.69 162.96C1796.69 160.96 1797.69 158.28 1797.69 154.92V151.68C1797.69 148.32 1796.69 145.64 1794.69 143.64C1792.69 141.64 1789.57 140.64 1785.33 140.64C1781.09 140.64 1777.97 141.64 1775.97 143.64C1773.97 145.64 1772.97 148.32 1772.97 151.68V154.92C1772.97 158.28 1773.97 160.96 1775.97 162.96C1777.97 164.96 1781.09 165.96 1785.33 165.96ZM1831.85 195V133.08H1844.93V143.64H1845.53C1846.17 142.04 1846.97 140.52 1847.93 139.08C1848.97 137.56 1850.21 136.28 1851.65 135.24C1853.09 134.12 1854.77 133.24 1856.69 132.6C1858.61 131.96 1860.85 131.64 1863.41 131.64C1869.65 131.64 1874.69 133.68 1878.53 137.76C1882.37 141.84 1884.29 147.64 1884.29 155.16V195H1871.21V157.08C1871.21 147.24 1866.93 142.32 1858.37 142.32C1856.69 142.32 1855.05 142.56 1853.45 143.04C1851.85 143.44 1850.41 144.08 1849.13 144.96C1847.85 145.84 1846.81 146.96 1846.01 148.32C1845.29 149.68 1844.93 151.24 1844.93 153V195H1831.85Z" fill="black"/>
</g>
<defs>
<radialGradient id="paint0_angular_60_132" cx="0" cy="0" r="1" gradientUnits="userSpaceOnUse" gradientTransform="translate(697.5 86.5) rotate(90) scale(14.5 101.5)">
<stop stop-color="#4649FF"/>
<stop offset="1" stop-color="#92AFF8"/>
</radialGradient>
<radialGradient id="paint1_angular_60_132" cx="0" cy="0" r="1" gradientUnits="userSpaceOnUse" gradientTransform="translate(743.5 171.5) rotate(90) scale(13.5 70.5)">
<stop stop-color="#4649FF"/>
<stop offset="1" stop-color="#92AFF8"/>
</radialGradient>
<radialGradient id="paint2_angular_60_132" cx="0" cy="0" r="1" gradientUnits="userSpaceOnUse" gradientTransform="translate(626.5 141.5) rotate(90) scale(14.5 46.5)">
<stop stop-color="#4649FF"/>
<stop offset="1" stop-color="#92AFF8"/>
</radialGradient>
<radialGradient id="paint3_angular_60_132" cx="0" cy="0" r="1" gradientUnits="userSpaceOnUse" gradientTransform="translate(796.5 128.5) rotate(90) scale(13.5 96.5)">
<stop stop-color="#4649FF"/>
<stop offset="1" stop-color="#92AFF8"/>
</radialGradient>
<clipPath id="clip0_60_132">
<rect width="1960" height="250" fill="white"/>
</clipPath>
</defs>
</svg>
